<?xml version="1.0" encoding="UTF-8"?>
<svg width="133px" height="18px" viewBox="0 0 133 18" version="1.1" xmlns="http://www.w3.org/2000/svg" xmlns:xlink="http://www.w3.org/1999/xlink">
    <!-- Generator: Sketch 54.1 (76490) - https://sketchapp.com -->
    <title>path10484</title>
    <desc>Created with Sketch.</desc>
    <g id="MODEL-3" stroke="none" stroke-width="1" fill="none" fill-rule="evenodd">
        <g id="Desktop" transform="translate(-45.000000, -34.000000)" fill="#000000" fill-rule="nonzero">
            <g id="Group" transform="translate(45.000000, 28.000000)">
                <path d="M91.3673335,23.2108696 L87.9973703,23.2021739 L87.9973703,6.01304348 L103.451964,6.01304348 C105.142413,6.72608696 106.047776,7.95869565 106.397675,9.39782609 L91.358586,9.39782609 L91.3673335,23.2108696 Z M116.586292,19.776087 L129.477877,19.776087 C131.268922,20.1282609 132.602911,21.7 132.976866,23.2195652 L113.085117,23.2195652 C113.456884,21.7 114.810555,20.1282609 116.586292,19.776087 L116.586292,19.776087 Z M74.8368003,19.823913 C76.627845,20.3413043 78.1367837,21.7 78.5041775,23.2065217 L59.5877717,23.2065217 L59.5877717,13.05 L75.0707952,13.05 L75.0707952,9.48478261 L62.9271187,9.47391304 C61.0223569,8.94782609 59.4128223,7.67826087 58.6058681,6 L59.5877717,6.0173913 L78.3992079,6.0173913 L78.3992079,16.426087 L62.9271187,16.426087 L62.9271187,19.823913 L74.8368003,19.823913 L74.8368003,19.823913 Z M113.605591,6.0173913 L116.95806,6.0173913 L116.95806,12.9369565 L129.162968,12.9369565 L129.162968,6.0173913 L132.51325,6.0173913 L132.51325,16.3956522 L113.605591,16.4130435 L113.605591,6.0173913 Z M33.5334297,19.7869565 L46.422828,19.7869565 C48.2160596,20.1413043 49.547862,21.7130435 49.9218164,23.2326087 L30.0322544,23.2326087 C30.404022,21.7130435 31.7555062,20.1413043 33.5334297,19.7869565 L33.5334297,19.7869565 Z M-4.54747351e-13,23.1934783 C0.387075587,21.6891304 1.69700935,20.1565217 3.49242775,19.7695652 L8.91804657,19.7695652 L9.19359191,19.6608696 L9.19359191,6.05217391 L12.5832369,6.05217391 L12.5832369,19.6608696 L12.8893984,19.7695652 L18.3215778,19.7695652 C20.1344911,20.2347826 21.4159956,21.6891304 21.7986975,23.1934783 L21.7986975,23.226087 L-4.54747351e-13,23.226087 L-4.54747351e-13,23.1934783 Z M33.5334297,6.01521739 L46.422828,6.01521739 C48.2160596,6.37173913 49.547862,7.93913043 49.9218164,9.46086957 L30.0322544,9.46086957 C30.404022,7.93913043 31.7555062,6.37173913 33.5334297,6.01521739 L33.5334297,6.01521739 Z M33.5334297,12.9934783 L46.422828,12.9934783 C48.2160596,13.3456522 49.547862,14.9173913 49.9218164,16.4369565 L30.0322544,16.4369565 C30.404022,14.9173913 31.7555062,13.3456522 33.5334297,12.9934783 L33.5334297,12.9934783 Z" id="path10484" transform="translate(66.488433, 14.616304) scale(1, -1) translate(-66.488433, -14.616304) "></path>
            </g>
        </g>
    </g>
</svg>