<?xml version="1.0" encoding="UTF-8"?>
<svg width="460px" height="61px" viewBox="0 0 460 61" version="1.1" xmlns="http://www.w3.org/2000/svg" xmlns:xlink="http://www.w3.org/1999/xlink">
    <!-- Generator: Sketch 54.1 (76490) - https://sketchapp.com -->
    <title>info</title>
    <desc>Created with Sketch.</desc>
    <g id="MODEL-3" stroke="none" stroke-width="1" fill="none" fill-rule="evenodd">
        <g id="Desktop" transform="translate(-668.000000, -597.000000)" fill="#000000">
            <g id="info" transform="translate(668.000000, 597.000000)">
                <g id="speed">
                    <g id="speedometer" fill-rule="nonzero">
                        <path d="M41.9940692,22.0088128 C41.9908635,21.9195293 41.9876133,21.8297699 41.9844077,21.7397077 C41.9810684,21.6496456 41.9776401,21.5593238 41.9742118,21.4685696 L41.9715404,21.4006552 L41.9702047,21.3666116 L41.9698485,21.3580898 L41.9689581,21.2819566 L41.9675778,21.2643075 L41.9586287,21.1515351 C41.9465628,21.0010422 41.934497,20.8499004 41.9224312,20.6987586 L41.9132149,20.5843425 L41.8993236,20.4359691 C41.8897065,20.3372987 41.880134,20.2386716 41.8705615,20.1402607 C41.8606328,20.0420229 41.8506596,19.9439148 41.8407754,19.8461528 C41.8356552,19.797315 41.8305796,19.7485638 41.8255039,19.6998991 C41.8193597,19.654868 41.8132155,19.6099234 41.8070712,19.5649789 C41.7563592,19.2084503 41.7110789,18.8580644 41.6464311,18.521218 C41.615888,18.3526867 41.5877048,18.1869671 41.5560042,18.0254435 C41.5214095,17.8643092 41.4875718,17.7067653 41.4546245,17.5533308 C41.3922028,17.2462889 41.3137972,16.9595348 41.2477246,16.6944527 C41.2308058,16.6283119 41.2142431,16.5634256 41.1980811,16.5001399 C41.1800937,16.4371136 41.1624624,16.375688 41.145321,16.3156898 C41.1105037,16.1960394 41.0775119,16.0824884 41.0464346,15.9759019 C41.0148231,15.8694451 40.9869515,15.7695202 40.9578332,15.6779008 C40.9278245,15.5865842 40.9003091,15.5026646 40.8754205,15.4268774 C40.8385107,15.3155325 40.8073889,15.2217502 40.7828565,15.14765 C40.74657,15.0382518 40.6276036,14.9767395 40.513802,15.008231 L34,17 C34,21 33.0834624,23.675589 33.06772,23.7417093 C33.0584591,23.7805546 33.0494654,23.8184049 33.0407388,23.8552603 C33.0317451,23.8868383 33.0230631,23.9174646 33.0145591,23.9471826 C33.0095725,23.9653507 33.004853,23.9823942 33,24 L41.7461188,24 C41.8633487,24 41.9609884,23.91063 41.9654407,23.7968194 C41.9654853,23.7961273 41.9654853,23.7954784 41.9655298,23.7947863 C41.9727871,23.6365503 41.980267,23.474075 41.987925,23.3079661 C41.9911752,23.1420302 41.9944699,22.9724607 41.9978982,22.8000362 C42.0028848,22.6277847 41.9974975,22.4527215 41.9970078,22.2757117 C41.9959837,22.1872501 41.9950487,22.0982694 41.9940692,22.0088128 Z" id="Path"></path>
                        <path d="M40,13 C38,8 32.2342543,4.08681445 32.1246781,4.0462056 C32,4 32,4 32,4 C29.3059914,7.30527414 27.972658,8.97194081 28,9 C29.9052486,9.90399107 34,13.1570786 34,15 L40,13 Z" id="Path"></path>
                        <path d="M27.0688962,7.96371913 C27.1506193,8.02224456 29.5236731,4.49899912 30.981025,2.89467103 C30.308016,2.24475385 25.9294293,-0.0176100243 19.0988114,0.132182033 C19.0603821,0.133024768 19.0042768,0.123816364 18.9304954,0.104556821 L19.0177574,5.1037953 C24.4959936,6.01542651 27.0245791,7.93198162 27.0688962,7.96371913 Z" id="Path" transform="translate(24.955760, 4.034498) rotate(1.000000) translate(-24.955760, -4.034498) "></path>
                        <path d="M15.6953684,4.96087527 C15.7540439,4.95274228 15.8116502,4.94267715 15.8691711,4.93629657 C15.9266919,4.9301856 15.9835284,4.92411955 16.0395524,4.91809845 C16.1513865,4.90592143 16.2601415,4.89405895 16.3653896,4.88255594 C16.4709371,4.87514189 16.572935,4.86795251 16.6708273,4.86103273 C16.7196665,4.85752791 16.7674793,4.85411295 16.814223,4.85074293 C16.8608384,4.84746277 16.9075393,4.84328395 16.9475686,4.84323901 C17.030065,4.8409474 17.1083703,4.83883552 17.1818858,4.8368135 C17.2551874,4.83438709 17.3236991,4.83209547 17.3871645,4.82998359 C17.4653842,4.82944439 17.5372318,4.82895012 17.6020656,4.82850078 C17.6734855,4.82809638 17.7366087,4.82773691 17.7905799,4.82742237 C17.9120365,4.82674837 18.0074911,4.71868298 17.9995366,4.59134105 L17.7260882,0.207166285 C17.7180909,0.0798243631 17.610063,-0.014221735 17.48959,0.00177463902 C17.4360037,0.00887415336 17.3734365,0.0171868758 17.3025725,0.0265780056 C17.2368833,0.0353400644 17.1641377,0.0450906632 17.0849343,0.0556950011 C16.9913614,0.0702984324 16.8901761,0.0860252047 16.7820199,0.102875318 C16.6742058,0.120129834 16.5594208,0.13850769 16.4384346,0.157874087 C16.3765089,0.167040549 16.3195013,0.179217564 16.2596711,0.191080043 C16.2000119,0.20303239 16.1389843,0.215299273 16.0766736,0.227790823 C15.9522662,0.253043526 15.8227267,0.279374636 15.6885258,0.306604419 C15.555394,0.338462366 15.4176862,0.371443654 15.2761721,0.405278682 C15.2055648,0.422308529 15.1339739,0.439607979 15.0615276,0.457132096 C14.9891668,0.474925816 14.9165922,0.496673695 14.8429913,0.516669163 C14.6960887,0.557783439 14.5461069,0.599796388 14.3935164,0.642483341 C14.2424654,0.690337662 14.0888913,0.738955855 13.9334782,0.788203119 C13.8559855,0.813410888 13.7776802,0.837180781 13.6998453,0.864096029 C13.6223526,0.891909949 13.5443039,0.919813736 13.4660414,0.947897258 C13.3879072,0.976025714 13.3094736,1.00424404 13.2308262,1.03259716 C13.152136,1.06072562 13.0733176,1.08898887 12.9955682,1.12120629 C12.8396847,1.18370897 12.6832024,1.24648126 12.5267202,1.30925355 C12.3709222,1.37332891 12.2176902,1.44432406 12.064116,1.51149984 C11.9875642,1.54578421 11.9107985,1.57885536 11.8351447,1.6140384 C11.7600041,1.65047958 11.6851202,1.68678595 11.6104928,1.72300246 C11.5360365,1.75921897 11.4618368,1.79534561 11.3880647,1.83124759 C11.3142927,1.86710463 11.24082,1.90242247 11.1694001,1.94137993 C11.0260472,2.01740764 10.8844476,2.09253668 10.7452002,2.16640757 C10.60591,2.2397842 10.4731631,2.32075461 10.3413143,2.39529951 C10.2100642,2.47123735 10.0809952,2.54367037 9.95923927,2.6217201 C9.83679906,2.69801741 9.71769464,2.77229271 9.60248195,2.84409666 C9.48692713,2.91491206 9.37975453,2.99138911 9.27472025,3.06049704 C9.170413,3.13072831 9.07046792,3.19808383 8.9753982,3.26211426 C8.88238128,3.32920018 8.79411143,3.39282621 8.71118738,3.45263288 C8.62847716,3.51248448 8.55106997,3.56847179 8.47947901,3.62028027 C8.40797359,3.67208875 8.34472208,3.72344789 8.28643148,3.76784232 C8.20744193,3.8291318 8.13999932,3.88143455 8.08542939,3.92376204 C7.99429419,3.99444265 7.97291099,4.12794048 8.03663293,4.22639007 L9.76931368,6.90290697 C9.83098283,6.99816628 9.95154132,7.02804715 10.0470387,6.97138583 C10.0910453,6.94532433 10.1430493,6.91445492 10.2023663,6.87931682 C10.2540708,6.84925621 10.3100093,6.81375864 10.3731753,6.77920468 C10.4362985,6.74460578 10.5045537,6.70731086 10.5774704,6.66740979 C10.6501733,6.62746379 10.7275804,6.58495657 10.809136,6.54015774 C10.8921028,6.49836946 10.9793035,6.45442436 11.0703104,6.40859206 C11.1617449,6.36383815 11.2545053,6.31256888 11.3545359,6.26785991 C11.4537967,6.22207254 11.5564361,6.17475742 11.6619835,6.12609429 C11.7664619,6.07554395 11.8771413,6.03137419 11.9891038,5.98419387 C12.1016649,5.93836156 12.2143972,5.88650815 12.3324752,5.84269786 C12.45004,5.79816862 12.5696149,5.75292045 12.690601,5.70708815 C12.7506023,5.68313852 12.812357,5.66287345 12.87424,5.64211411 C12.9359946,5.62121997 12.9980915,5.60023596 13.0604021,5.57916209 C13.1225845,5.55804328 13.1850234,5.5368346 13.2476334,5.51553606 C13.3105856,5.49545072 13.3744358,5.47747727 13.4378584,5.45824567 C13.5652595,5.42122036 13.6918053,5.38015102 13.8201045,5.34573185 C13.9484892,5.31234616 14.0768739,5.27896047 14.2047455,5.24575451 C14.2682108,5.22800573 14.332617,5.21412124 14.3967239,5.20023674 C14.4607024,5.18608265 14.5245099,5.17197349 14.5881035,5.15790926 C14.6514833,5.14375516 14.7146493,5.12969094 14.7775159,5.11567164 C14.8405108,5.10246115 14.9038478,5.09226122 14.9663296,5.08044367 C15.091293,5.05766232 15.2147168,5.03510563 15.3361734,5.01299828 C15.4580576,4.99533937 15.5779319,4.97790512 15.6953684,4.96087527 Z" id="Path"></path>
                        <path d="M3.98795717,8.81274964 C3.9389919,8.87577515 3.8898422,8.93909438 3.84046197,9.00266539 C3.79122005,9.06619442 3.74179371,9.12997523 3.69218295,9.19396584 C3.64280271,9.25804038 3.59660384,9.32450669 3.5485607,9.38988202 C3.45385762,9.52151385 3.35694142,9.65213862 3.26417482,9.78523909 C3.17357524,9.91947251 3.08297565,10.0537059 2.99274492,10.1874358 L2.92542919,10.2875549 L2.86152536,10.3893105 C2.81906113,10.4569517 2.77673522,10.524467 2.73454762,10.5916467 C2.56210871,10.8582253 2.41230818,11.1307204 2.26006399,11.3895362 C2.18919805,11.5215037 2.11948478,11.6512892 2.05124692,11.7783473 C2.01740463,11.8417924 1.98388509,11.9046501 1.95082662,11.9666685 C1.91970462,12.0295262 1.88899759,12.0916705 1.8586594,12.1530176 C1.79825968,12.27546 1.7395198,12.3946294 1.68267028,12.5098544 C1.62964763,12.6265481 1.57837702,12.7392555 1.52918121,12.8474311 C1.48095365,12.9559424 1.43221891,13.0586211 1.39067681,13.1582786 C1.34968799,13.2580201 1.31077397,13.3526842 1.27416528,13.4415997 C1.23774102,13.5304312 1.20366819,13.6135561 1.17217735,13.6904287 C1.14308404,13.7680567 1.11638829,13.8393485 1.0922284,13.9037588 C1.06087587,13.9884362 1.03394958,14.0611127 1.0119567,14.1206135 C0.972996575,14.2257679 1.03224363,14.33986 1.14612708,14.3795971 L2.88480923,14.9862281 C2.99546521,15.0248323 3.12009151,14.9797661 3.1712238,14.8824584 C3.19658246,14.8342871 3.22687454,14.7765907 3.26168506,14.7103342 C3.29054783,14.6557428 3.32245364,14.595277 3.35726417,14.5294401 C3.39424171,14.4645263 3.43421619,14.3944513 3.47695706,14.3194669 C3.51955961,14.2447343 3.56483635,14.1650503 3.61260285,14.0811281 C3.6607382,13.9974578 3.71615841,13.9116474 3.77116366,13.8210116 C3.8268605,13.7308792 3.88490879,13.6369284 3.94498576,13.5396627 C4.00829021,13.4442852 4.07371556,13.3455928 4.14103128,13.2441309 C4.17455082,13.1934839 4.20853143,13.1421656 4.242927,13.0902178 C4.27912073,13.0392351 4.31577552,12.9877069 4.35279917,12.9354654 C4.42684647,12.831402 4.50250749,12.7251566 4.57945951,12.616981 C4.74295373,12.4063365 4.90285162,12.1844884 5.08354362,11.970529 C5.12766769,11.9164412 5.17197619,11.8621855 5.21642302,11.807762 L5.28304714,11.7260638 L5.35285262,11.64617 C5.44580365,11.5396309 5.53912353,11.4327561 5.63244341,11.3258812 C5.72746923,11.2203072 5.82609138,11.1174607 5.92194712,11.0137329 C5.97054354,10.9622467 6.01720348,10.9097115 6.06695257,10.8596519 C6.11674776,10.8096763 6.16635853,10.7598266 6.21578487,10.7101867 C6.26511899,10.6605887 6.31422259,10.6112005 6.36309565,10.5620222 C6.41150764,10.512592 6.4603807,10.4640431 6.51114413,10.4175083 C6.61101116,10.3233896 6.70967941,10.2304039 6.80673393,10.1388869 C6.90360402,10.0475377 7.00471592,9.96277632 7.10015671,9.87709184 C7.1963352,9.79203678 7.28937844,9.70811467 7.38518808,9.63120005 C7.47943009,9.55315249 7.57109013,9.47724493 7.65979935,9.40377112 C7.74777085,9.3298777 7.83841655,9.26391492 7.92214624,9.19770038 C8.00642922,9.13236701 8.08720808,9.06976111 8.16402178,9.01021838 C8.23945228,8.95587881 8.31100981,8.90435063 8.37823332,8.85584365 C8.44508798,8.80742059 8.50765472,8.76206069 8.56551857,8.72009963 C8.59207601,8.70012617 8.6280392,8.67620836 8.65842349,8.65518588 C8.6895916,8.63374378 8.71933039,8.6133507 8.74754767,8.59400666 C8.80900784,8.55175187 8.86327538,8.51449045 8.9097509,8.48260005 C9.01427469,8.41080468 9.03045813,8.27392772 8.94543745,8.18329183 L6.96584801,6.07269265 C6.88082733,5.98205677 6.7297358,5.97513319 6.63544769,6.05779647 C6.59353673,6.09455436 6.54452535,6.13748052 6.48910515,6.18611338 C6.46365427,6.20839471 6.43682019,6.23193486 6.40869513,6.256566 C6.3800629,6.28186852 6.35281386,6.30490514 6.31731173,6.33792849 C6.24944273,6.40024066 6.17608703,6.46767207 6.0976596,6.53967725 C6.01964714,6.61172438 5.93660904,6.68838723 5.84905249,6.76920423 C5.76767424,6.84943377 5.68210028,6.93377549 5.59283779,7.02176783 C5.50468185,7.11043154 5.40960992,7.19976663 5.31762713,7.29770373 C5.22527549,7.39513731 5.12983471,7.4958858 5.03167363,7.59940373 C4.93231378,7.70170479 4.83618139,7.81160079 4.73728261,7.92309132 C4.63912153,8.0351693 4.53565818,8.14699552 4.43694382,8.26549354 C4.3385061,8.38399157 4.23845465,8.50446176 4.13720443,8.62648451 C4.0857494,8.6869504 4.03655359,8.74938845 3.98795717,8.81274964 Z" id="Path"></path>
                        <path d="M0.572201602,16.1663131 C0.558058559,16.2184348 0.541492604,16.2794964 0.522729125,16.348486 C0.505543355,16.4118248 0.486498142,16.4819951 0.465762525,16.5583643 C0.445421336,16.6364625 0.42553092,16.7286875 0.403330287,16.8228102 C0.381467735,16.9178606 0.358252859,17.0189834 0.333798354,17.1255883 C0.32196553,17.178722 0.308442301,17.2336269 0.297229291,17.2889956 C0.28725591,17.344027 0.277113489,17.4002814 0.266689333,17.4576742 C0.227021197,17.6876253 0.174787727,17.9350347 0.144698544,18.199354 C0.127231041,18.3310498 0.109312763,18.4662879 0.0910000578,18.6045622 C0.0758991194,18.7430051 0.0658130449,18.8847795 0.0527969376,19.0284936 C0.0223696737,19.3157111 0.0167913419,19.6135975 0.00411331531,19.9149418 L0,20.0282095 L0.000732508205,20.141941 C0.00129597606,20.2178886 0.00185944391,20.2939626 0.00242291176,20.3702475 C0.00304272639,20.4464481 0.00366254103,20.5227751 0.00422600888,20.5991444 L0.00518390422,20.7137193 L0.0110439699,20.8283786 C0.0193269473,20.9809062 0.0276099247,21.1335182 0.0358929021,21.2854976 L0.0421473952,21.3991448 L0.0440631859,21.4359589 L0.0467678316,21.4633691 L0.0521771229,21.5181475 C0.0593895114,21.5911853 0.0665455531,21.6640123 0.0737015948,21.7365863 C0.0808576365,21.8091603 0.0880136782,21.8813969 0.0950570263,21.9532961 C0.10480502,22.0282316 0.11444032,22.1029562 0.124131967,22.1771748 C0.133879961,22.251309 0.143571608,22.3249372 0.153206908,22.3981437 C0.158052732,22.4346205 0.162898555,22.4710551 0.167744379,22.5072788 C0.173773485,22.5429543 0.179802591,22.5785033 0.18577535,22.6139258 C0.209779081,22.7551941 0.233388384,22.8941431 0.256490565,23.0301824 C0.284382224,23.1655892 0.311654068,23.2981284 0.338137057,23.4270832 C0.362929642,23.5559958 0.394878269,23.6806914 0.424234944,23.8012544 C0.426657856,23.8109113 0.429080768,23.8204416 0.431447333,23.8300141 C0.455958184,23.9286068 0.570567545,24 0.704503853,24 L1.45340897,24 C1.61332115,24 1.74021411,23.8992567 1.7308042,23.7798323 C1.72826859,23.747952 1.72567664,23.7157344 1.72280295,23.6832216 C1.71344939,23.5670021 1.70218003,23.4471559 1.69857383,23.3234723 C1.69316454,23.1999996 1.68764256,23.0731533 1.68195153,22.9435238 C1.68088094,22.8139786 1.67981035,22.6816081 1.67873977,22.5469604 C1.67845803,22.5133512 1.6781763,22.4795733 1.67789456,22.4457533 C1.67885246,22.4123971 1.6798667,22.3788722 1.68088094,22.3451787 C1.68285308,22.2780446 1.68482522,22.2103623 1.6868537,22.1422583 C1.68882584,22.074323 1.69085432,22.0058817 1.69288281,21.937103 C1.69739055,21.8651194 1.70184195,21.7927141 1.70640604,21.720098 C1.71091378,21.6474397 1.71547787,21.5744862 1.71998561,21.5013218 L1.72342277,21.4463748 L1.72511317,21.4188802 L1.72533856,21.4154223 C1.72533856,21.4066931 1.72556394,21.4234767 1.72567664,21.4206091 L1.7263528,21.4139463 L1.72776147,21.400705 L1.73914352,21.294311 C1.75424446,21.1524102 1.76940174,21.0100876 1.78461538,20.8676807 L1.79622281,20.761118 L1.81261973,20.6548083 C1.823551,20.5840476 1.83442593,20.5133713 1.84530086,20.4428215 C1.85611945,20.3723138 1.86693803,20.3019749 1.87770026,20.2318889 L1.8937591,20.1269708 L1.91455106,20.0227696 C1.97157401,19.745715 2.02003224,19.4731726 2.09102919,19.2122268 C2.12433014,19.0815009 2.15413759,18.9528835 2.18834009,18.8276818 C2.22558531,18.7029861 2.26198534,18.5809893 2.29742747,18.4622396 C2.36301512,18.2243606 2.44804242,18.003223 2.51723627,17.7982363 C2.53498551,17.7470845 2.55234032,17.6969448 2.5693007,17.648028 C2.58721898,17.5998281 2.60654593,17.5542006 2.62435151,17.5089947 C2.66024441,17.4190468 2.69433422,17.3337376 2.72633919,17.2534888 C2.75907668,17.1726074 2.78595409,17.1002865 2.8172829,17.0277125 C2.85013308,16.9536626 2.88022226,16.8858116 2.90749411,16.8244548 C2.93713252,16.7575737 2.96333377,16.6985362 2.98575979,16.6479327 C3.03619016,16.5343698 2.94812014,16.412626 2.79350456,16.3818 L0.916086031,16.0071227 C0.761414106,15.9762123 0.604093882,16.048955 0.572201602,16.1663131 Z" id="Path"></path>
                        <path d="M23.7744652,29.1987951 C24.2385668,29.4327934 24.7301976,29.5437207 25.2142076,29.5437207 C26.4291776,29.5437207 27.5967956,28.8455234 28.1663475,27.6438699 C28.2760365,27.4125653 28.3609363,27.157194 28.4161661,26.9167044 L31.7375322,12.0476328 L33.0024231,6.38499728 L33.786044,2.8771422 C33.8772374,2.46889265 33.5623848,2.19077953 33.2465045,2.19077953 C33.0615917,2.19077953 32.8762936,2.28611872 32.771828,2.50642776 L31.177228,5.87058958 L28.8248666,10.8334381 L22.2668629,24.6689251 C21.4703977,26.3492176 22.1454001,28.3773502 23.7744652,29.1987951 Z M25.3359701,24.4104627 C26.2247417,24.4104627 26.9452552,25.1535697 26.9452552,26.0703096 C26.9452552,26.9869613 26.2247417,27.7301565 25.3359701,27.7301565 C24.4471984,27.7301565 23.726685,26.9869613 23.726685,26.0703096 C23.726685,25.1534814 24.4471984,24.4104627 25.3359701,24.4104627 Z" id="Shape" transform="translate(27.867250, 15.867250) rotate(45.000000) translate(-27.867250, -15.867250) "></path>
                    </g>
                    <g id="info" transform="translate(0.000000, 2.000000)" font-family="Gotham-Medium, Gotham" font-weight="400">
                        <text id="from-0-60mph" font-size="17">
                            <tspan x="0.3365" y="56">from 0-60mph</tspan>
                        </text>
                        <text id="3.2s" font-size="30">
                            <tspan x="54.485" y="24">3.2s</tspan>
                        </text>
                    </g>
                </g>
                <g id="milage" transform="translate(177.000000, 2.000000)" font-family="Gotham-Medium, Gotham" font-weight="400">
                    <text id="Range-(EPA-est.)" font-size="17">
                        <tspan x="0.08" y="56">Range (EPA est.)</tspan>
                    </text>
                    <text id="325mi" font-size="30">
                        <tspan x="26.15" y="24">325mi</tspan>
                    </text>
                </g>
                <g id="moto" transform="translate(372.000000, 2.000000)" font-family="Gotham-Medium, Gotham" font-weight="400">
                    <text id="Dual-Moto" font-size="17">
                        <tspan x="0.6995" y="56">Dual Moto</tspan>
                    </text>
                    <text id="AWD" font-size="30">
                        <tspan x="5.53" y="24">AWD</tspan>
                    </text>
                </g>
            </g>
        </g>
    </g>
</svg>