<?xml version="1.0" encoding="UTF-8"?>
<svg width="178px" height="80px" viewBox="0 0 178 80" version="1.1" xmlns="http://www.w3.org/2000/svg" xmlns:xlink="http://www.w3.org/1999/xlink">
    <!-- Generator: Sketch 54.1 (76490) - https://sketchapp.com -->
    <title>Group</title>
    <desc>Created with Sketch.</desc>
    <g id="MODEL-3" stroke="none" stroke-width="1" fill="none" fill-rule="evenodd">
        <g id="Desktop" transform="translate(-40.000000, -34.000000)" fill="#000000">
            <g id="Group" transform="translate(40.000000, 34.000000)">
                <text id="Model-3" font-family="Gotham-Medium, Gotham" font-size="45" font-weight="400">
                    <tspan x="0" y="79">Model 3</tspan>
                </text>
                <path d="M91.3673335,17.2108696 L87.9973703,17.2021739 L87.9973703,0.0130434783 L103.451964,0.0130434783 C105.142413,0.726086957 106.047776,1.95869565 106.397675,3.39782609 L91.358586,3.39782609 L91.3673335,17.2108696 Z M116.586292,13.776087 L129.477877,13.776087 C131.268922,14.1282609 132.602911,15.7 132.976866,17.2195652 L113.085117,17.2195652 C113.456884,15.7 114.810555,14.1282609 116.586292,13.776087 L116.586292,13.776087 Z M74.8368003,13.823913 C76.627845,14.3413043 78.1367837,15.7 78.5041775,17.2065217 L59.5877717,17.2065217 L59.5877717,7.05 L75.0707952,7.05 L75.0707952,3.48478261 L62.9271187,3.47391304 C61.0223569,2.94782609 59.4128223,1.67826087 58.6058681,8.70414851e-14 L59.5877717,0.0173913043 L78.3992079,0.0173913043 L78.3992079,10.426087 L62.9271187,10.426087 L62.9271187,13.823913 L74.8368003,13.823913 L74.8368003,13.823913 Z M113.605591,0.0173913043 L116.95806,0.0173913043 L116.95806,6.93695652 L129.162968,6.93695652 L129.162968,0.0173913043 L132.51325,0.0173913043 L132.51325,10.3956522 L113.605591,10.4130435 L113.605591,0.0173913043 Z M33.5334297,13.7869565 L46.422828,13.7869565 C48.2160596,14.1413043 49.547862,15.7130435 49.9218164,17.2326087 L30.0322544,17.2326087 C30.404022,15.7130435 31.7555062,14.1413043 33.5334297,13.7869565 L33.5334297,13.7869565 Z M4.97379915e-13,17.1934783 C0.387075587,15.6891304 1.69700935,14.1565217 3.49242775,13.7695652 L8.91804657,13.7695652 L9.19359191,13.6608696 L9.19359191,0.052173913 L12.5832369,0.052173913 L12.5832369,13.6608696 L12.8893984,13.7695652 L18.3215778,13.7695652 C20.1344911,14.2347826 21.4159956,15.6891304 21.7986975,17.1934783 L21.7986975,17.226087 L4.97379915e-13,17.226087 L4.97379915e-13,17.1934783 Z M33.5334297,0.0152173913 L46.422828,0.0152173913 C48.2160596,0.37173913 49.547862,1.93913043 49.9218164,3.46086957 L30.0322544,3.46086957 C30.404022,1.93913043 31.7555062,0.37173913 33.5334297,0.0152173913 L33.5334297,0.0152173913 Z M33.5334297,6.99347826 L46.422828,6.99347826 C48.2160596,7.34565217 49.547862,8.9173913 49.9218164,10.4369565 L30.0322544,10.4369565 C30.404022,8.9173913 31.7555062,7.34565217 33.5334297,6.99347826 L33.5334297,6.99347826 Z" id="path10484" fill-rule="nonzero" transform="translate(66.488433, 8.616304) scale(1, -1) translate(-66.488433, -8.616304) "></path>
            </g>
        </g>
    </g>
</svg>